<?xml version="1.0" standalone="no"?>
<!DOCTYPE svg PUBLIC "-//W3C//DTD SVG 20010904//EN"
 "http://www.w3.org/TR/2001/REC-SVG-20010904/DTD/svg10.dtd">
<svg version="1.0" xmlns="http://www.w3.org/2000/svg"
 width="1200.000000pt" height="1800.000000pt" viewBox="0 0 1200.000000 1800.000000"
 preserveAspectRatio="xMidYMid meet">

<g transform="translate(0.000000,1800.000000) scale(0.100000,-0.100000)"
fill="#000000" stroke="none">
<path d="M5874 17031 c-96 -24 -121 -34 -180 -77 -42 -31 -87 -76 -118 -119
-48 -66 -139 -312 -2544 -6914 -1825 -5010 -2502 -6882 -2527 -6980 l-34 -135
30 -123 c26 -111 34 -130 80 -192 31 -43 77 -89 120 -120 62 -46 81 -54 195
-81 l126 -30 4988 0 4988 0 126 30 c114 27 133 35 195 81 43 31 89 77 120 120
46 62 54 81 80 192 l30 123 -34 135 c-25 98 -702 1970 -2527 6980 -2405 6602
-2496 6848 -2544 6914 -31 43 -76 88 -118 119 -60 43 -83 53 -184 78 -64 15
-126 28 -137 27 -11 0 -70 -13 -131 -28z m215 -235 c67 -18 120 -55 158 -109
20 -29 800 -2160 2518 -6877 1369 -3759 2499 -6873 2512 -6919 22 -82 22 -86
6 -150 -30 -122 -93 -184 -215 -214 -62 -16 -443 -17 -5058 -17 -4615 0 -4996
1 -5058 17 -122 30 -185 92 -215 214 -16 64 -16 68 6 150 13 46 1143 3160
2512 6919 1715 4711 2498 6848 2518 6877 37 53 91 91 154 108 64 18 97 18 162
1z"/>
<path d="M5946 14156 c-55 -13 -129 -76 -139 -118 -2 -13 -37 -106 -76 -208
-39 -102 -71 -189 -71 -195 0 -6 -18 -58 -41 -115 -22 -58 -62 -168 -90 -245
-27 -77 -53 -148 -59 -157 -5 -10 -10 -23 -10 -30 0 -7 -23 -71 -51 -143 -28
-71 -66 -175 -84 -230 -19 -55 -42 -122 -53 -150 -30 -80 -136 -367 -198 -535
-31 -85 -70 -191 -86 -235 -16 -44 -31 -88 -33 -98 -2 -10 -40 -113 -83 -230
-44 -117 -85 -230 -92 -252 -7 -22 -16 -44 -21 -49 -5 -6 -9 -16 -9 -24 0 -8
-29 -89 -64 -181 -35 -91 -71 -188 -79 -216 -8 -27 -51 -146 -96 -263 -44
-118 -83 -223 -85 -235 -3 -12 -34 -101 -71 -197 -37 -96 -74 -197 -82 -225
-8 -27 -18 -54 -21 -60 -4 -5 -7 -15 -8 -22 -1 -6 -28 -78 -59 -159 -31 -82
-70 -187 -85 -234 -15 -47 -58 -164 -95 -260 -37 -96 -80 -213 -95 -260 -15
-47 -57 -162 -93 -256 -36 -93 -69 -183 -73 -199 -4 -16 -13 -40 -20 -54 -8
-14 -14 -30 -14 -36 0 -5 -21 -64 -46 -130 -25 -66 -72 -194 -104 -285 -56
-160 -96 -269 -260 -715 -43 -115 -83 -228 -90 -250 -7 -22 -42 -116 -78 -210
-35 -93 -77 -208 -92 -255 -16 -47 -62 -175 -104 -285 -42 -110 -76 -204 -76
-210 0 -5 -33 -97 -74 -205 -41 -107 -80 -213 -86 -235 -7 -22 -44 -123 -82
-225 -39 -102 -90 -241 -113 -310 -24 -69 -68 -190 -99 -270 -31 -80 -58 -154
-60 -165 -2 -11 -36 -105 -76 -210 -40 -104 -79 -212 -87 -240 -8 -27 -18 -54
-21 -60 -4 -5 -7 -15 -8 -22 -1 -6 -17 -49 -35 -95 -18 -46 -40 -110 -49 -142
-15 -54 -15 -64 -1 -115 22 -78 70 -123 155 -145 60 -15 385 -16 3776 -16
3391 0 3716 1 3776 16 85 22 133 67 155 145 14 51 14 61 -1 115 -9 32 -31 96
-49 142 -18 46 -34 89 -35 95 -1 7 -5 18 -9 25 -5 6 -5 12 -1 12 3 0 2 6 -4
13 -5 6 -14 28 -20 47 -5 19 -42 121 -82 225 -40 105 -74 199 -76 210 -2 11
-33 96 -69 189 -36 93 -77 205 -92 250 -14 44 -55 158 -91 251 -35 94 -77 208
-92 255 -16 47 -60 168 -99 270 -39 102 -71 190 -71 195 0 6 -34 100 -76 210
-42 110 -88 238 -104 285 -15 47 -57 162 -92 255 -36 94 -71 188 -78 210 -7
22 -47 135 -90 250 -164 444 -204 555 -260 715 -32 91 -79 219 -104 285 -25
65 -46 124 -46 130 0 5 -6 22 -14 36 -7 14 -16 38 -20 54 -4 16 -37 106 -73
199 -36 94 -78 209 -93 256 -15 47 -58 164 -95 260 -37 96 -80 213 -95 260
-15 47 -54 152 -85 234 -31 81 -58 153 -59 159 -1 7 -4 17 -8 22 -3 6 -13 33
-21 60 -8 28 -45 129 -82 225 -37 96 -68 185 -71 197 -2 12 -40 117 -85 235
-44 117 -89 238 -98 268 -17 54 -132 367 -156 425 -7 17 -16 41 -20 55 -4 14
-43 120 -86 237 -44 117 -82 220 -84 230 -2 10 -17 54 -33 98 -16 44 -55 150
-86 235 -62 168 -168 455 -198 535 -11 28 -34 95 -53 150 -18 55 -56 159 -84
230 -28 72 -51 136 -51 143 0 7 -5 20 -10 30 -6 9 -32 80 -59 157 -28 77 -68
187 -90 245 -23 57 -41 109 -41 115 0 6 -32 93 -71 195 -39 102 -74 195 -76
208 -9 40 -87 108 -132 116 -21 3 -45 8 -53 10 -7 2 -35 -2 -62 -8z m28 -1012
c34 -33 8 -104 -37 -104 -29 0 -57 29 -57 58 0 52 59 81 94 46z m471 -940 c24
-25 16 -75 -16 -93 -24 -13 -29 -13 -53 2 -32 21 -37 80 -8 96 26 15 58 13 77
-5z m-343 -171 c47 -45 113 -178 157 -314 68 -216 165 -656 238 -1079 l28
-164 256 -416 255 -415 -232 -5 -233 -5 -50 -71 c-80 -114 -184 -192 -323
-242 -64 -23 -88 -26 -203 -26 -115 0 -139 3 -203 26 -139 50 -243 128 -323
242 l-50 71 -228 5 -227 5 257 417 257 418 17 97 c78 439 186 917 256 1126
112 335 231 447 351 330z m-577 -245 c52 -24 35 -108 -22 -108 -68 0 -86 90
-23 113 8 3 16 6 17 6 1 1 14 -4 28 -11z m1523 -576 c16 -21 15 -43 -4 -70
-35 -50 -115 -8 -100 53 11 44 74 54 104 17z m-2000 -548 c42 -29 18 -104 -35
-104 -28 0 -63 33 -63 60 0 25 34 60 58 60 10 0 28 -7 40 -16z m1914 -271 c10
-9 18 -27 18 -40 0 -28 -33 -63 -60 -63 -11 0 -29 9 -40 20 -55 55 24 135 82
83z m-2404 -869 c29 -20 31 -79 3 -94 -49 -26 -94 1 -89 54 2 21 11 35 28 43
32 16 31 16 58 -3z m1180 -292 c13 -9 11 -23 -34 -257 -294 -1504 -1112 -2725
-2304 -3440 -135 -80 -527 -282 -534 -274 -2 2 -9 15 -16 29 -11 20 -10 25 1
29 42 14 401 198 499 256 556 329 1036 774 1419 1314 368 519 653 1158 820
1842 34 139 101 471 101 500 0 11 30 12 48 1z m572 -1 c0 -29 67 -361 101
-500 167 -684 452 -1323 820 -1842 383 -540 863 -985 1419 -1314 98 -58 457
-242 499 -256 11 -4 12 -9 1 -29 -7 -14 -14 -27 -16 -29 -7 -8 -399 194 -534
274 -611 367 -1112 850 -1513 1460 -409 623 -680 1334 -827 2169 -8 46 -7 62
2 68 18 11 48 10 48 -1z m-280 -1456 l0 -1415 -30 0 -30 0 0 1415 0 1415 30 0
30 0 0 -1415z m896 1370 c19 -29 11 -60 -20 -81 -56 -36 -114 38 -69 88 24 26
69 23 89 -7z m-1854 -77 c27 -22 30 -53 7 -81 -11 -15 -28 -27 -38 -27 -29 0
-61 30 -61 57 0 51 54 81 92 51z m2644 -73 c34 -52 -15 -112 -71 -87 -54 25
-35 112 25 112 20 0 35 -8 46 -25z m-532 -581 c19 -19 21 -54 3 -78 -20 -27
-77 -18 -96 15 -13 24 -13 29 2 53 20 30 66 35 91 10z m-2242 -71 c26 -24 23
-69 -7 -89 -29 -19 -60 -11 -81 20 -36 56 38 115 88 69z m-692 -298 c7 -8 13
-26 13 -40 0 -36 -21 -55 -59 -55 -35 0 -54 20 -54 59 0 44 72 70 100 36z
m3388 -547 c7 -7 12 -26 12 -43 0 -17 -5 -36 -12 -43 -7 -7 -26 -12 -43 -12
-17 0 -36 5 -43 12 -7 7 -12 26 -12 43 0 17 5 36 12 43 7 7 26 12 43 12 17 0
36 -5 43 -12z m677 -14 c27 -11 38 -53 21 -80 -21 -31 -52 -39 -81 -20 -60 40
-8 126 60 100z m-3741 -210 c20 -20 21 -68 1 -84 -24 -20 -67 -15 -87 10 -18
23 -17 51 4 78 14 17 63 15 82 -4z m-867 -360 c15 -24 15 -29 2 -53 -29 -51
-109 -33 -109 24 0 56 76 76 107 29z m4984 -654 c30 -17 26 -75 -7 -97 -24
-15 -29 -15 -53 -2 -70 39 -11 137 60 99z m-5361 -289 c14 -26 13 -64 -2 -79
-7 -7 -26 -12 -43 -12 -17 0 -36 5 -43 12 -7 7 -12 26 -12 43 0 40 16 55 57
55 22 0 36 -6 43 -19z m4360 -1187 c100 -30 167 -92 207 -194 16 -41 18 -86
18 -460 l0 -415 -170 0 -170 0 -3 120 -3 120 -44 -3 -44 -4 -3 -116 -3 -117
-170 0 -170 0 0 401 0 401 40 79 c73 143 180 202 366 203 60 1 115 -5 149 -15z
m-2965 -19 c295 -62 467 -333 404 -637 -39 -190 -197 -355 -384 -401 -66 -16
-257 -31 -267 -21 -4 3 -87 7 -185 8 l-178 1 -3 520 c-1 286 0 526 3 533 7 19
516 17 610 -3z m1080 -155 l0 -165 -120 -5 c-122 -6 -145 -11 -145 -34 0 -17
53 -26 155 -26 50 0 86 -5 93 -12 17 -17 17 -229 0 -246 -8 -8 -47 -12 -109
-12 -124 0 -159 -7 -159 -31 0 -11 3 -20 8 -20 4 -1 68 -4 142 -8 l135 -6 0
-165 0 -165 -195 0 c-189 0 -197 1 -251 26 -68 32 -117 80 -150 145 -23 48
-24 56 -27 329 -2 182 0 298 8 331 22 102 93 181 193 216 44 15 81 17 237 15
l185 -2 0 -165z m435 -182 c3 -211 9 -351 15 -357 6 -5 33 -14 60 -18 l50 -8
0 -165 0 -165 -111 0 c-107 0 -113 1 -180 35 -83 42 -135 106 -164 199 -18 58
-20 92 -20 440 0 208 3 381 7 385 4 3 81 5 172 4 l166 -3 5 -347z m868 340
c18 -18 17 -302 -1 -316 -7 -6 -60 -13 -118 -14 l-104 -3 -5 -360 -5 -360
-170 0 -170 0 -3 362 -2 362 -113 3 -112 3 -3 155 c-1 85 0 160 2 167 7 18
786 19 804 1z"/>
<path d="M7490 4424 c-6 -14 -10 -56 -10 -94 l0 -68 45 -4 45 -3 0 75 c0 104
-6 120 -41 120 -22 0 -32 -6 -39 -26z"/>
<path d="M4460 4235 c0 -165 3 -205 13 -197 6 5 44 13 82 17 130 12 192 50
215 133 14 53 12 95 -6 142 -27 68 -82 95 -219 106 l-85 7 0 -208z"/>
</g>
</svg>
